<svg width="375" height="381" viewBox="0 0 375 381" fill="none" xmlns="http://www.w3.org/2000/svg">
<path d="M432.126 320.964H-57V321.208H432.126V320.964Z" fill="#EBEBEB"/>
<path d="M383.115 336.704H350.715V336.949H383.115V336.704Z" fill="#EBEBEB"/>
<path d="M267.016 339.365H258.515V339.609H267.016V339.365Z" fill="#EBEBEB"/>
<path d="M349.737 327.626H330.965V327.871H349.737V327.626Z" fill="#EBEBEB"/>
<path d="M36.5696 329.269H-5.68103V329.514H36.5696V329.269Z" fill="#EBEBEB"/>
<path d="M51.4781 329.269H45.2858V329.514H51.4781V329.269Z" fill="#EBEBEB"/>
<path d="M163.253 333.398H71.6107V333.642H163.253V333.398Z" fill="#EBEBEB"/>
<path d="M174.845 277.334H-14.0452C-15.525 277.331 -16.9433 276.742 -17.9887 275.694C-19.0341 274.647 -19.6213 273.228 -19.6213 271.748V6.22141C-19.6084 4.75015 -19.0155 3.34338 -17.9715 2.30666C-16.9275 1.26995 -15.5166 0.68703 -14.0452 0.684509H174.845C176.327 0.684509 177.748 1.27301 178.795 2.32056C179.843 3.3681 180.431 4.78887 180.431 6.27032V271.748C180.431 273.23 179.843 274.65 178.795 275.698C177.748 276.745 176.327 277.334 174.845 277.334ZM-14.0452 0.88016C-15.4601 0.882752 -16.8162 1.44663 -17.8158 2.44803C-18.8153 3.44943 -19.3767 4.80652 -19.3767 6.22141V271.748C-19.3767 273.163 -18.8153 274.52 -17.8158 275.522C-16.8162 276.523 -15.4601 277.087 -14.0452 277.089H174.845C176.261 277.087 177.618 276.523 178.619 275.522C179.62 274.521 180.184 273.164 180.187 271.748V6.22141C180.184 4.80562 179.62 3.44855 178.619 2.44743C177.618 1.44631 176.261 0.882746 174.845 0.88016H-14.0452Z" fill="#EBEBEB"/>
<path d="M386.451 277.334H197.551C196.07 277.331 194.651 276.742 193.604 275.695C192.557 274.648 191.968 273.229 191.965 271.748V6.22141C191.98 4.74925 192.575 3.34249 193.621 2.30605C194.667 1.26961 196.079 0.687002 197.551 0.684509H386.451C387.921 0.689601 389.329 1.27366 390.371 2.3101C391.413 3.34653 392.004 4.75184 392.017 6.22141V271.748C392.017 273.226 391.432 274.644 390.388 275.691C389.345 276.738 387.929 277.329 386.451 277.334ZM197.551 0.88016C196.135 0.882746 194.778 1.44631 193.777 2.44743C192.776 3.44855 192.212 4.80562 192.21 6.22141V271.748C192.212 273.164 192.776 274.521 193.777 275.522C194.778 276.523 196.135 277.087 197.551 277.089H386.451C387.867 277.087 389.224 276.523 390.225 275.522C391.226 274.521 391.79 273.164 391.792 271.748V6.22141C391.79 4.80562 391.226 3.44855 390.225 2.44743C389.224 1.44631 387.867 0.882746 386.451 0.88016H197.551Z" fill="#EBEBEB"/>
<path d="M179.179 48.1102L182.721 46.2515L186.262 48.1102L185.587 44.1678L188.453 41.37L184.491 40.7929L182.721 37.2125L180.95 40.7929L176.988 41.37L179.854 44.1678L179.179 48.1102Z" fill="#F0F0F0"/>
<path d="M348.427 232.902H319.49V180.908C321.948 180.625 324.216 179.449 325.864 177.605C327.512 175.76 328.426 173.374 328.431 170.9V169.824C328.433 168.497 328.172 167.182 327.665 165.955C327.157 164.729 326.413 163.614 325.474 162.676C324.536 161.737 323.421 160.993 322.195 160.485C320.968 159.978 319.653 159.717 318.326 159.719V146.6L324.195 144.566C315.601 126.309 309.722 106.894 306.743 86.9369L303.437 64.7501L300.062 86.9369C297.087 106.894 291.211 126.309 282.62 144.566L288.489 146.6V159.699C285.809 159.699 283.239 160.764 281.344 162.659C279.449 164.554 278.384 167.124 278.384 169.805V170.9C278.384 171.018 278.384 171.125 278.384 171.233H226.302V138.99H226.116C236.016 132.494 242.12 123.612 242.12 113.8C242.12 99.752 229.589 87.5825 211.315 81.6445C205.909 79.8619 200.941 76.9569 196.736 73.1198C192.532 69.2828 189.186 64.6003 186.917 59.3795C190.29 59.268 193.481 57.8211 195.787 55.3573C198.093 52.8934 199.326 49.6144 199.214 46.2416C199.102 42.8688 197.656 39.6784 195.192 37.3723C192.728 35.0663 189.449 33.8334 186.076 33.945C185.579 33.9494 185.083 33.9787 184.589 34.033C186.442 34.2715 188.191 35.0244 189.638 36.2062C191.084 37.388 192.171 38.9516 192.775 40.7196C193.378 42.4875 193.474 44.3892 193.052 46.209C192.629 48.0287 191.706 49.6938 190.385 51.0153C189.065 52.3368 187.401 53.262 185.581 53.6859C183.762 54.1098 181.86 54.0154 180.092 53.4136C178.323 52.8117 176.759 51.7264 175.576 50.2806C174.392 48.8349 173.638 47.0866 173.398 45.234C173.336 45.724 173.303 46.2173 173.3 46.7112C173.303 49.9288 174.521 53.0265 176.711 55.3845C178.9 57.7425 181.899 59.1868 185.108 59.4284C182.836 64.6438 179.488 69.3205 175.284 73.1524C171.08 76.9842 166.113 79.8848 160.71 81.6641C142.426 87.6021 129.895 99.7715 129.895 113.819C129.895 123.602 136.009 132.514 145.909 139.009H145.713V171.233H93.6509C93.6509 171.125 93.6509 171.018 93.6509 170.9V169.824C93.6521 168.497 93.3916 167.182 92.8843 165.955C92.3769 164.729 91.6326 163.614 90.6939 162.676C89.7553 161.737 88.6408 160.993 87.4142 160.485C86.1876 159.978 84.8729 159.717 83.5455 159.719V146.6L89.415 144.566C80.821 126.309 74.9415 106.894 71.963 86.9369L68.6565 64.7501L65.2816 86.9369C62.3065 106.894 56.4303 126.309 47.8393 144.566L53.7088 146.6V159.699C51.0287 159.699 48.4584 160.764 46.5633 162.659C44.6682 164.554 43.6035 167.124 43.6035 169.805V170.9C43.6051 173.371 44.5117 175.755 46.152 177.603C47.7922 179.45 50.0525 180.633 52.5056 180.927V232.921H23.5885C21.9695 232.921 20.4169 233.564 19.2721 234.709C18.1273 235.854 17.4842 237.407 17.4842 239.026V243.467C17.4842 244.268 17.6422 245.061 17.949 245.801C18.2559 246.541 18.7057 247.214 19.2727 247.78C19.8397 248.346 20.5127 248.795 21.2532 249.1C21.9938 249.406 22.7873 249.563 23.5885 249.561V322.079H348.427V249.542C349.228 249.543 350.021 249.386 350.762 249.081C351.503 248.775 352.176 248.326 352.743 247.76C353.309 247.194 353.759 246.522 354.066 245.782C354.373 245.042 354.531 244.248 354.531 243.447V239.006C354.531 237.387 353.888 235.834 352.743 234.69C351.598 233.545 350.046 232.902 348.427 232.902Z" fill="#F0F0F0"/>
<path d="M319.49 180.908H52.525V232.902H319.49V180.908Z" fill="#EBEBEB"/>
<path d="M215.208 272.443C215.208 265.135 208.693 258.796 199.175 255.715C196.165 254.722 193.418 253.062 191.138 250.861C188.858 248.659 187.105 245.971 186.008 242.997C184.91 245.971 183.157 248.659 180.877 250.861C178.597 253.062 175.85 254.722 172.84 255.715C163.332 258.796 156.807 265.135 156.807 272.443C156.836 275.15 157.697 277.783 159.272 279.985V322.05H212.753V279.985C214.32 277.78 215.177 275.148 215.208 272.443Z" fill="#E0E0E0"/>
<path d="M238.236 269.782C235.692 269.787 233.253 270.801 231.456 272.602C229.659 274.403 228.649 276.844 228.649 279.388V322.06H247.872V279.388C247.871 278.125 247.62 276.874 247.135 275.707C246.65 274.54 245.94 273.48 245.045 272.588C244.15 271.696 243.088 270.989 241.92 270.507C240.752 270.026 239.5 269.779 238.236 269.782Z" fill="#E0E0E0"/>
<path d="M268.64 269.782C271.191 269.782 273.637 270.795 275.44 272.598C277.243 274.402 278.256 276.848 278.256 279.398V322.069H259.024V279.388C259.027 276.84 260.041 274.396 261.844 272.595C263.647 270.794 266.092 269.782 268.64 269.782Z" fill="#E0E0E0"/>
<path d="M299.035 269.782C301.585 269.782 304.031 270.795 305.834 272.598C307.638 274.402 308.651 276.848 308.651 279.398V322.069H289.419V279.388C289.421 276.84 290.435 274.396 292.239 272.595C294.042 270.794 296.486 269.782 299.035 269.782Z" fill="#E0E0E0"/>
<path d="M329.409 269.782C326.861 269.782 324.418 270.794 322.616 272.596C320.815 274.397 319.803 276.841 319.803 279.388V322.06H339.025V279.388C339.023 276.84 338.009 274.396 336.205 272.595C334.402 270.794 331.958 269.782 329.409 269.782Z" fill="#E0E0E0"/>
<path d="M42.5861 269.782C40.0417 269.787 37.6033 270.801 35.806 272.602C34.0087 274.403 32.9993 276.844 32.9993 279.388V322.06H52.2219V279.388C52.2206 278.125 51.9703 276.874 51.4852 275.707C51.0002 274.54 50.2899 273.48 49.395 272.588C48.5001 271.696 47.4382 270.989 46.2699 270.507C45.1015 270.026 43.8498 269.779 42.5861 269.782Z" fill="#E0E0E0"/>
<path d="M72.9899 269.782C75.5403 269.782 77.9862 270.795 79.7896 272.598C81.593 274.402 82.6061 276.848 82.6061 279.398V322.069H63.3737V279.388C63.3763 276.84 64.3906 274.396 66.1937 272.595C67.9968 270.794 70.4412 269.782 72.9899 269.782Z" fill="#E0E0E0"/>
<path d="M103.384 269.782C104.647 269.782 105.897 270.031 107.064 270.514C108.231 270.997 109.291 271.705 110.184 272.598C111.077 273.491 111.785 274.551 112.268 275.718C112.752 276.885 113 278.135 113 279.398V322.069H93.7679V279.388C93.7705 276.84 94.7848 274.396 96.5879 272.595C98.391 270.794 100.835 269.782 103.384 269.782Z" fill="#E0E0E0"/>
<path d="M133.759 269.782C131.211 269.782 128.768 270.794 126.966 272.596C125.165 274.397 124.153 276.841 124.153 279.388V322.06H143.375V279.388C143.373 276.84 142.358 274.396 140.555 272.595C138.752 270.794 136.308 269.782 133.759 269.782Z" fill="#E0E0E0"/>
<path d="M96.8292 199.555L87.4355 208.949L96.8292 218.342L106.223 208.949L96.8292 199.555Z" fill="#E0E0E0"/>
<path d="M156.279 199.554L146.885 208.948L156.279 218.341L165.672 208.948L156.279 199.554Z" fill="#E0E0E0"/>
<path d="M215.735 199.556L206.341 208.95L215.735 218.343L225.128 208.95L215.735 199.556Z" fill="#E0E0E0"/>
<path d="M275.191 199.558L265.797 208.952L275.191 218.345L284.584 208.952L275.191 199.558Z" fill="#E0E0E0"/>
<path d="M145.713 171.213H226.301V138.99H145.909L145.713 171.213Z" fill="#EBEBEB"/>
<path d="M83.5062 146.6H53.7283V159.699H83.5062V146.6Z" fill="#E0E0E0"/>
<path d="M318.287 146.6H288.509V159.699H318.287V146.6Z" fill="#E0E0E0"/>
<path d="M187.563 381C298.141 381 387.782 375.766 387.782 369.31C387.782 362.854 298.141 357.62 187.563 357.62C76.9851 357.62 -12.6559 362.854 -12.6559 369.31C-12.6559 375.766 76.9851 381 187.563 381Z" fill="#F5F5F5"/>
<path d="M344.083 58.0592C344.018 58.0592 343.956 58.0334 343.91 57.9876C343.864 57.9417 343.839 57.8795 343.839 57.8146V0.244563C343.839 0.179701 343.864 0.117495 343.91 0.0716306C343.956 0.0257662 344.018 0 344.083 0C344.148 0 344.21 0.0257662 344.256 0.0716306C344.302 0.117495 344.328 0.179701 344.328 0.244563V57.8146C344.328 57.8795 344.302 57.9417 344.256 57.9876C344.21 58.0334 344.148 58.0592 344.083 58.0592Z" fill="#263238"/>
<path d="M342.195 159.837C342.136 159.835 342.079 159.813 342.034 159.773C341.989 159.734 341.96 159.68 341.951 159.621C341.599 156.912 342.518 154.984 343.584 152.774C344.602 150.848 345.324 148.78 345.727 146.64C346.265 143.412 345.609 139.489 344.915 135.331C344.553 133.12 344.171 130.851 343.937 128.65C343.937 130.127 344.005 132.377 344.289 135.82C344.719 141.103 342.792 145.828 341.1 150.005C339.623 153.625 338.351 156.745 338.762 159.572C338.771 159.606 338.774 159.64 338.769 159.675C338.764 159.709 338.752 159.742 338.733 159.771C338.715 159.8 338.69 159.825 338.662 159.844C338.633 159.863 338.6 159.876 338.566 159.881C338.532 159.887 338.497 159.885 338.464 159.876C338.43 159.867 338.399 159.852 338.372 159.83C338.346 159.808 338.324 159.781 338.308 159.75C338.293 159.719 338.284 159.685 338.282 159.651C337.852 156.716 339.212 153.351 340.64 149.868C342.323 145.75 344.23 141.064 343.8 135.918C343.281 129.657 343.34 125.901 343.937 125.608C343.973 125.589 344.013 125.579 344.054 125.579C344.095 125.579 344.135 125.589 344.171 125.608C344.209 125.627 344.24 125.656 344.261 125.693C344.282 125.729 344.291 125.771 344.289 125.813C344.394 128.99 344.754 132.153 345.365 135.273C346.059 139.479 346.725 143.441 346.177 146.748C345.76 148.93 345.025 151.039 343.995 153.008C342.958 155.17 342.039 157.039 342.401 159.612C342.405 159.644 342.403 159.676 342.394 159.708C342.385 159.739 342.37 159.768 342.35 159.794C342.33 159.819 342.306 159.84 342.277 159.856C342.249 159.872 342.218 159.882 342.186 159.885L342.195 159.837Z" fill="#263238"/>
<path d="M341.148 156.843H341.031C341.001 156.829 340.975 156.808 340.954 156.784C340.933 156.759 340.918 156.73 340.909 156.698C340.899 156.667 340.897 156.634 340.901 156.602C340.905 156.569 340.916 156.538 340.933 156.51C343.77 150.974 342.655 145.221 341.579 139.665C341.412 138.833 341.256 138.002 341.109 137.19C339.974 130.831 343.897 125.696 343.936 125.647C343.968 125.606 344.011 125.576 344.059 125.56C344.108 125.544 344.161 125.544 344.21 125.559C344.258 125.577 344.299 125.61 344.328 125.651C344.358 125.693 344.374 125.742 344.376 125.793C344.376 125.872 344.279 133.199 347.135 139.313C350.07 145.603 349.708 153.634 346.362 156.178C346.31 156.217 346.245 156.233 346.181 156.224C346.117 156.215 346.059 156.181 346.02 156.129C345.981 156.077 345.964 156.012 345.973 155.948C345.983 155.883 346.017 155.825 346.069 155.787C349.248 153.37 349.542 145.622 346.695 139.518C344.948 135.421 343.998 131.029 343.897 126.576C341.881 129.69 341.06 133.43 341.588 137.102C341.738 137.917 341.895 138.739 342.058 139.567C343.154 145.212 344.288 151.042 341.363 156.735C341.341 156.771 341.308 156.8 341.271 156.819C341.233 156.838 341.19 156.846 341.148 156.843Z" fill="#263238"/>
<path d="M345.971 120.736H342.195V123.25H345.971V120.736Z" fill="#FFC727"/>
<path d="M343.271 55.2027L341.53 60.4266H346.636L344.895 55.2027H343.271Z" fill="#263238"/>
<path d="M355.499 70.4831H332.667V113.194H355.499V70.4831Z" fill="#FFC727"/>
<path opacity="0.2" d="M350.461 70.4831H337.695V113.194H350.461V70.4831Z" fill="white"/>
<path d="M344.083 107.833C342.936 107.833 341.836 107.377 341.025 106.566C340.214 105.755 339.759 104.656 339.759 103.509V81.009C339.759 79.8622 340.214 78.7624 341.025 77.9515C341.836 77.1406 342.936 76.6851 344.083 76.6851C345.23 76.6851 346.329 77.1406 347.14 77.9515C347.951 78.7624 348.407 79.8622 348.407 81.009V103.509C348.407 104.656 347.951 105.755 347.14 106.566C346.329 107.377 345.23 107.833 344.083 107.833Z" fill="#263238"/>
<path d="M352.887 107.833C352.579 107.833 352.283 107.71 352.064 107.492C351.846 107.273 351.723 106.977 351.723 106.669V77.8101C351.723 77.5014 351.846 77.2053 352.064 76.987C352.283 76.7687 352.579 76.646 352.887 76.646C353.196 76.646 353.492 76.7687 353.711 76.987C353.929 77.2053 354.052 77.5014 354.052 77.8101V106.669C354.052 106.977 353.929 107.273 353.711 107.492C353.492 107.71 353.196 107.833 352.887 107.833Z" fill="#263238"/>
<path d="M335.279 107.833C334.97 107.833 334.674 107.71 334.456 107.492C334.238 107.273 334.115 106.977 334.115 106.669V77.8101C334.115 77.5014 334.238 77.2053 334.456 76.987C334.674 76.7687 334.97 76.646 335.279 76.646C335.588 76.646 335.884 76.7687 336.102 76.987C336.32 77.2053 336.443 77.5014 336.443 77.8101V106.669C336.443 106.977 336.32 107.273 336.102 107.492C335.884 107.71 335.588 107.833 335.279 107.833Z" fill="#263238"/>
<path d="M344.083 59.9766C326.895 65.8461 331.982 73.408 331.982 73.408H356.184C356.184 73.408 361.271 65.8657 344.083 59.9766Z" fill="#FFC727"/>
<path d="M358.287 72.4004H329.879L330.857 74.4254H357.309L358.287 72.4004Z" fill="#FFC727"/>
<path opacity="0.4" d="M329.879 72.4004H358.287L357.309 74.4254H330.857L329.879 72.4004Z" fill="white"/>
<path d="M340.356 61.5418H347.81C347.924 61.3407 347.983 61.113 347.98 60.8818C347.978 60.6507 347.914 60.4243 347.796 60.2257C347.678 60.027 347.509 59.8632 347.307 59.7507C347.105 59.6382 346.877 59.5812 346.646 59.5853H341.52C341.289 59.5812 341.061 59.6382 340.859 59.7507C340.657 59.8632 340.488 60.027 340.37 60.2257C340.252 60.4243 340.188 60.6507 340.186 60.8818C340.183 61.113 340.242 61.3407 340.356 61.5418Z" fill="#FFC727"/>
<path opacity="0.4" d="M340.356 61.5418H347.81C347.924 61.3407 347.983 61.113 347.98 60.8818C347.978 60.6507 347.914 60.4243 347.796 60.2257C347.678 60.027 347.509 59.8632 347.307 59.7507C347.105 59.6382 346.877 59.5812 346.646 59.5853H341.52C341.289 59.5812 341.061 59.6382 340.859 59.7507C340.657 59.8632 340.488 60.027 340.37 60.2257C340.252 60.4243 340.188 60.6507 340.186 60.8818C340.183 61.113 340.242 61.3407 340.356 61.5418Z" fill="white"/>
<path d="M339.015 61.1994H349.15C349.285 61.1994 349.414 61.253 349.51 61.3484C349.605 61.4438 349.659 61.5731 349.659 61.7081C349.659 61.843 349.605 61.9724 349.51 62.0678C349.414 62.1632 349.285 62.2168 349.15 62.2168H339.015C338.88 62.2168 338.751 62.1632 338.656 62.0678C338.56 61.9724 338.507 61.843 338.507 61.7081C338.507 61.5731 338.56 61.4438 338.656 61.3484C338.751 61.253 338.88 61.1994 339.015 61.1994Z" fill="#FFC727"/>
<path opacity="0.2" d="M339.015 61.1994H349.15C349.285 61.1994 349.414 61.253 349.51 61.3484C349.605 61.4438 349.659 61.5731 349.659 61.7081C349.659 61.843 349.605 61.9724 349.51 62.0678C349.414 62.1632 349.285 62.2168 349.15 62.2168H339.015C338.88 62.2168 338.751 62.1632 338.656 62.0678C338.56 61.9724 338.507 61.843 338.507 61.7081C338.507 61.5731 338.56 61.4438 338.656 61.3484C338.751 61.253 338.88 61.1994 339.015 61.1994Z" fill="white"/>
<path d="M332.403 110.582V113.066C332.403 113.895 332.637 114.706 333.078 115.407C333.52 116.108 334.15 116.67 334.897 117.028L342.606 120.736H345.541L353.249 117.028C353.996 116.67 354.627 116.108 355.069 115.407C355.51 114.706 355.744 113.895 355.744 113.066V110.582H332.403Z" fill="#FFC727"/>
<path d="M329.879 111.599H358.287L357.309 109.574H330.857L329.879 111.599Z" fill="#FFC727"/>
<path opacity="0.4" d="M329.879 111.599H358.287L357.309 109.574H330.857L329.879 111.599Z" fill="white"/>
<path d="M345.306 121.831H342.86C342.341 121.831 341.844 121.625 341.477 121.258C341.11 120.891 340.904 120.394 340.904 119.875H347.302C347.302 120.135 347.25 120.393 347.149 120.633C347.048 120.873 346.901 121.09 346.715 121.272C346.529 121.455 346.309 121.598 346.067 121.694C345.825 121.79 345.566 121.837 345.306 121.831Z" fill="#FFC727"/>
<path d="M344.083 127.76C345.617 127.76 346.861 126.516 346.861 124.981C346.861 123.447 345.617 122.203 344.083 122.203C342.549 122.203 341.305 123.447 341.305 124.981C341.305 126.516 342.549 127.76 344.083 127.76Z" fill="#FFC727"/>
<path opacity="0.2" d="M345.306 121.831H342.86C342.341 121.831 341.844 121.625 341.477 121.258C341.11 120.891 340.904 120.394 340.904 119.875H347.302C347.302 120.135 347.25 120.393 347.149 120.633C347.048 120.873 346.901 121.09 346.715 121.272C346.529 121.455 346.309 121.598 346.067 121.694C345.825 121.79 345.566 121.837 345.306 121.831Z" fill="white"/>
<path opacity="0.4" d="M344.083 127.76C345.617 127.76 346.861 126.516 346.861 124.981C346.861 123.447 345.617 122.203 344.083 122.203C342.549 122.203 341.305 123.447 341.305 124.981C341.305 126.516 342.549 127.76 344.083 127.76Z" fill="white"/>
<path d="M31.0429 58.0592C30.978 58.0592 30.9158 58.0334 30.87 57.9876C30.8241 57.9417 30.7983 57.8795 30.7983 57.8146V0.244563C30.7983 0.179701 30.8241 0.117495 30.87 0.0716306C30.9158 0.0257662 30.978 0 31.0429 0C31.1078 0 31.17 0.0257662 31.2158 0.0716306C31.2617 0.117495 31.2875 0.179701 31.2875 0.244563V57.8146C31.2875 57.8795 31.2617 57.9417 31.2158 57.9876C31.17 58.0334 31.1078 58.0592 31.0429 58.0592Z" fill="#263238"/>
<path d="M32.9308 159.836C32.8986 159.833 32.8674 159.823 32.8391 159.807C32.8108 159.791 32.7859 159.77 32.7659 159.744C32.7459 159.719 32.7311 159.69 32.7225 159.659C32.7138 159.627 32.7115 159.595 32.7156 159.563C33.0482 156.99 32.158 155.121 31.121 152.959C30.0917 150.99 29.3567 148.881 28.9395 146.699C28.3917 143.392 29.0569 139.43 29.7515 135.224C30.3627 132.104 30.7226 128.941 30.8276 125.764C30.8249 125.722 30.8346 125.68 30.8555 125.644C30.8764 125.607 30.9075 125.578 30.945 125.558C30.9812 125.54 31.0215 125.53 31.0623 125.53C31.1032 125.53 31.1435 125.54 31.1797 125.558C31.7765 125.852 31.8352 129.608 31.3167 135.869C30.8863 141.025 32.7938 145.701 34.4764 149.819C35.9047 153.351 37.2645 156.667 36.834 159.602C36.8221 159.664 36.7875 159.719 36.7368 159.757C36.6862 159.795 36.6231 159.813 36.5601 159.807C36.5278 159.802 36.4968 159.791 36.4689 159.774C36.441 159.757 36.4167 159.735 36.3976 159.709C36.3784 159.682 36.3648 159.652 36.3574 159.62C36.35 159.588 36.3491 159.556 36.3547 159.523C36.7655 156.696 35.4938 153.576 34.0167 149.956C32.3243 145.779 30.3971 141.054 30.8276 135.771C31.1113 132.328 31.1895 130.078 31.1797 128.601C30.9841 130.802 30.6026 133.071 30.2015 135.282C29.5069 139.44 28.8515 143.363 29.3895 146.591C29.7925 148.731 30.5147 150.799 31.5319 152.725C32.5982 154.955 33.4884 156.882 33.1656 159.572C33.1683 159.638 33.1453 159.703 33.1016 159.752C33.0578 159.801 32.9965 159.831 32.9308 159.836Z" fill="#263238"/>
<path d="M34.0265 156.843C33.9813 156.843 33.9369 156.831 33.8987 156.806C33.8605 156.782 33.8302 156.747 33.8113 156.706C30.8766 151.013 32.0211 145.182 33.1167 139.538C33.2798 138.71 33.4363 137.888 33.5863 137.073C34.1142 133.4 33.2941 129.661 31.2776 126.547C31.1763 130.999 30.2267 135.392 28.4798 139.489C25.6331 145.593 25.9266 153.341 29.1059 155.757C29.1578 155.796 29.1921 155.854 29.2013 155.918C29.2105 155.982 29.1937 156.048 29.1548 156.1C29.1159 156.151 29.058 156.186 28.9938 156.195C28.9296 156.204 28.8643 156.187 28.8124 156.148C25.4668 153.605 25.1049 145.574 28.0396 139.283C30.8961 133.169 30.7983 125.842 30.7983 125.764C30.8003 125.713 30.8172 125.664 30.8467 125.622C30.8762 125.58 30.9171 125.548 30.9646 125.529C31.0138 125.514 31.0663 125.515 31.1152 125.531C31.1641 125.546 31.2071 125.577 31.2385 125.617C31.2385 125.617 35.1515 130.802 34.0656 137.161C33.9189 137.973 33.7624 138.804 33.5961 139.636C32.52 145.192 31.4048 150.944 34.2417 156.481C34.2586 156.509 34.2695 156.54 34.2737 156.572C34.2779 156.605 34.2754 156.638 34.2662 156.669C34.2569 156.7 34.2413 156.729 34.2203 156.754C34.1992 156.779 34.1732 156.799 34.1439 156.814C34.1076 156.832 34.0674 156.842 34.0265 156.843Z" fill="#263238"/>
<path d="M29.1546 123.25H32.9306V120.736H29.1546V123.25Z" fill="#FFC727"/>
<path d="M31.8548 55.2027L33.596 60.4266H28.4896L30.2308 55.2027H31.8548Z" fill="#263238"/>
<path d="M42.4589 70.4831H19.6265V113.194H42.4589V70.4831Z" fill="#FFC727"/>
<path opacity="0.2" d="M37.4208 70.4831H24.6546V113.194H37.4208V70.4831Z" fill="white"/>
<path d="M31.0426 107.833C32.1893 107.833 33.2891 107.377 34.1 106.566C34.9109 105.755 35.3664 104.656 35.3664 103.509V81.009C35.3716 80.4379 35.2636 79.8715 35.0486 79.3423C34.8336 78.8132 34.5159 78.3319 34.1139 77.9263C33.7119 77.5206 33.2335 77.1986 32.7063 76.9789C32.1792 76.7591 31.6137 76.646 31.0426 76.646C29.8958 76.646 28.796 77.1016 27.9851 77.9125C27.1742 78.7234 26.7187 79.8231 26.7187 80.9699V103.47C26.7135 104.041 26.8215 104.607 27.0365 105.136C27.2515 105.665 27.5692 106.147 27.9712 106.552C28.3732 106.958 28.8516 107.28 29.3788 107.5C29.906 107.72 30.4714 107.833 31.0426 107.833Z" fill="#263238"/>
<path d="M22.2382 107.833C22.547 107.833 22.8431 107.71 23.0614 107.492C23.2797 107.273 23.4023 106.977 23.4023 106.669V77.8101C23.4023 77.5014 23.2797 77.2053 23.0614 76.987C22.8431 76.7687 22.547 76.646 22.2382 76.646C21.9295 76.646 21.6334 76.7687 21.4151 76.987C21.1968 77.2053 21.0741 77.5014 21.0741 77.8101V106.669C21.0741 106.977 21.1968 107.273 21.4151 107.492C21.6334 107.71 21.9295 107.833 22.2382 107.833Z" fill="#263238"/>
<path d="M39.8467 107.833C40.1554 107.833 40.4515 107.71 40.6698 107.492C40.8881 107.273 41.0108 106.977 41.0108 106.669V77.8101C41.0108 77.5014 40.8881 77.2053 40.6698 76.987C40.4515 76.7687 40.1554 76.646 39.8467 76.646C39.5379 76.646 39.2418 76.7687 39.0235 76.987C38.8052 77.2053 38.6826 77.5014 38.6826 77.8101V106.669C38.6826 106.977 38.8052 107.273 39.0235 107.492C39.2418 107.71 39.5379 107.833 39.8467 107.833Z" fill="#263238"/>
<path d="M31.0425 59.9766C48.2304 65.8461 43.1435 73.408 43.1435 73.408H18.9416C18.9416 73.408 13.8547 65.8657 31.0425 59.9766Z" fill="#FFC727"/>
<path d="M16.8384 72.4004H45.2469L44.2686 74.4254H17.8167L16.8384 72.4004Z" fill="#FFC727"/>
<path opacity="0.4" d="M45.2469 72.4004H16.8384L17.8167 74.4254H44.2686L45.2469 72.4004Z" fill="white"/>
<path d="M34.7698 61.5418H27.3155C27.2017 61.3407 27.143 61.113 27.1455 60.8818C27.148 60.6507 27.2115 60.4243 27.3297 60.2257C27.4479 60.027 27.6165 59.8632 27.8185 59.7507C28.0204 59.6382 28.2485 59.5812 28.4797 59.5853H33.6057C33.8368 59.5812 34.0649 59.6382 34.2669 59.7507C34.4688 59.8632 34.6374 60.027 34.7556 60.2257C34.8738 60.4243 34.9374 60.6507 34.9399 60.8818C34.9424 61.113 34.8837 61.3407 34.7698 61.5418Z" fill="#FFC727"/>
<path opacity="0.4" d="M34.7698 61.5418H27.3155C27.2017 61.3407 27.143 61.113 27.1455 60.8818C27.148 60.6507 27.2115 60.4243 27.3297 60.2257C27.4479 60.027 27.6165 59.8632 27.8185 59.7507C28.0204 59.6382 28.2485 59.5812 28.4797 59.5853H33.6057C33.8368 59.5812 34.0649 59.6382 34.2669 59.7507C34.4688 59.8632 34.6374 60.027 34.7556 60.2257C34.8738 60.4243 34.9374 60.6507 34.9399 60.8818C34.9424 61.113 34.8837 61.3407 34.7698 61.5418Z" fill="white"/>
<path d="M36.1099 61.1994H25.9752C25.8403 61.1994 25.7109 61.253 25.6155 61.3484C25.5201 61.4438 25.4665 61.5731 25.4665 61.7081C25.4665 61.843 25.5201 61.9724 25.6155 62.0678C25.7109 62.1632 25.8403 62.2168 25.9752 62.2168H36.1099C36.2448 62.2168 36.3742 62.1632 36.4696 62.0678C36.565 61.9724 36.6186 61.843 36.6186 61.7081C36.6186 61.5731 36.565 61.4438 36.4696 61.3484C36.3742 61.253 36.2448 61.1994 36.1099 61.1994Z" fill="#FFC727"/>
<path opacity="0.2" d="M36.1099 61.1994H25.9752C25.8403 61.1994 25.7109 61.253 25.6155 61.3484C25.5201 61.4438 25.4665 61.5731 25.4665 61.7081C25.4665 61.843 25.5201 61.9724 25.6155 62.0678C25.7109 62.1632 25.8403 62.2168 25.9752 62.2168H36.1099C36.2448 62.2168 36.3742 62.1632 36.4696 62.0678C36.565 61.9724 36.6186 61.843 36.6186 61.7081C36.6186 61.5731 36.565 61.4438 36.4696 61.3484C36.3742 61.253 36.2448 61.1994 36.1099 61.1994Z" fill="white"/>
<path d="M42.7233 110.582V113.066C42.7234 113.895 42.4893 114.706 42.0479 115.407C41.6065 116.108 40.9758 116.67 40.2287 117.028L32.5201 120.736H29.5854L21.8767 117.028C21.1296 116.67 20.499 116.108 20.0576 115.407C19.6162 114.706 19.3821 113.895 19.3822 113.066V110.582H42.7233Z" fill="#FFC727"/>
<path d="M45.2469 111.599H16.8384L17.8167 109.574H44.2686L45.2469 111.599Z" fill="#FFC727"/>
<path opacity="0.4" d="M45.2469 111.599H16.8384L17.8167 109.574H44.2686L45.2469 111.599Z" fill="white"/>
<path d="M29.8199 121.831H32.2656C32.7845 121.831 33.2821 121.625 33.649 121.258C34.0159 120.891 34.2221 120.394 34.2221 119.875H27.8439C27.8439 120.134 27.8951 120.39 27.9946 120.628C28.0942 120.867 28.2401 121.083 28.4238 121.265C28.6076 121.447 28.8256 121.591 29.0652 121.688C29.3048 121.785 29.5614 121.834 29.8199 121.831Z" fill="#FFC727"/>
<path d="M31.0424 127.76C32.5768 127.76 33.8206 126.516 33.8206 124.981C33.8206 123.447 32.5768 122.203 31.0424 122.203C29.508 122.203 28.2642 123.447 28.2642 124.981C28.2642 126.516 29.508 127.76 31.0424 127.76Z" fill="#FFC727"/>
<path opacity="0.2" d="M29.8199 121.831H32.2656C32.7845 121.831 33.2821 121.625 33.649 121.258C34.0159 120.891 34.2221 120.394 34.2221 119.875H27.8439C27.8439 120.134 27.8951 120.39 27.9946 120.628C28.0942 120.867 28.2401 121.083 28.4238 121.265C28.6076 121.447 28.8256 121.591 29.0652 121.688C29.3048 121.785 29.5614 121.834 29.8199 121.831Z" fill="white"/>
<path opacity="0.4" d="M31.0424 127.76C32.5768 127.76 33.8206 126.516 33.8206 124.981C33.8206 123.447 32.5768 122.203 31.0424 122.203C29.508 122.203 28.2642 123.447 28.2642 124.981C28.2642 126.516 29.508 127.76 31.0424 127.76Z" fill="white"/>
<path d="M355.881 344.158C355.881 344.158 350.745 332.957 356.615 321.913C362.484 310.869 364.177 308.276 360.44 306.007C356.703 303.737 354.981 314.811 354.981 314.811C354.981 314.811 351.831 307.181 354.433 299.159C357.035 291.137 358.669 278.156 355.118 276.767C351.567 275.378 354.433 292.996 351.352 299.002C349.779 294.787 348.766 290.383 348.339 285.904C347.908 279.486 348.573 269.273 345.766 266.612C342.958 263.952 341.168 265.801 343.927 279.956C345.585 288.419 346.498 297.012 346.656 305.635C346.656 305.635 340.571 287.048 336.482 286.51C332.393 285.972 332.393 291.988 335.895 297.202C339.397 302.416 346.147 311.769 347.253 316.582C347.253 316.582 340.562 302.602 334.536 306.887C328.509 311.172 339.779 319.604 344.788 322.666C349.796 325.728 353.289 344.843 353.289 344.843L355.881 344.158Z" fill="#FFC727"/>
<path opacity="0.6" d="M355.881 344.158C355.881 344.158 350.745 332.957 356.615 321.913C362.484 310.869 364.177 308.276 360.44 306.007C356.703 303.737 354.981 314.811 354.981 314.811C354.981 314.811 351.831 307.181 354.433 299.159C357.035 291.137 358.669 278.156 355.118 276.767C351.567 275.378 354.433 292.996 351.352 299.002C349.779 294.787 348.766 290.383 348.339 285.904C347.908 279.486 348.573 269.273 345.766 266.612C342.958 263.952 341.168 265.801 343.927 279.956C345.585 288.419 346.498 297.012 346.656 305.635C346.656 305.635 340.571 287.048 336.482 286.51C332.393 285.972 332.393 291.988 335.895 297.202C339.397 302.416 346.147 311.769 347.253 316.582C347.253 316.582 340.562 302.602 334.536 306.887C328.509 311.172 339.779 319.604 344.788 322.666C349.796 325.728 353.289 344.843 353.289 344.843L355.881 344.158Z" fill="white"/>
<path d="M351.831 348.756C351.831 348.756 356.83 337.477 350.853 326.521C344.875 315.564 343.115 312.991 346.832 310.673C350.549 308.354 352.388 319.428 352.388 319.428C352.388 319.428 355.45 311.749 352.75 303.776C350.05 295.803 348.27 282.842 351.772 281.394C355.274 279.946 352.653 297.613 355.803 303.571C357.326 299.332 358.286 294.912 358.659 290.423C359.011 284.006 358.229 273.793 360.997 271.093C363.766 268.393 365.595 270.222 363.002 284.417C361.45 292.903 360.638 301.508 360.576 310.135C360.576 310.135 366.446 291.47 370.525 290.863C374.605 290.257 374.673 296.273 371.239 301.546C367.806 306.819 361.163 316.22 360.117 321.111C360.117 321.111 366.632 307.034 372.697 311.221C378.762 315.408 367.62 324.026 362.641 327.156C357.661 330.287 354.413 349.451 354.413 349.451L351.831 348.756Z" fill="#FFC727"/>
<path opacity="0.7" d="M351.831 348.756C351.831 348.756 356.83 337.477 350.853 326.521C344.875 315.564 343.115 312.991 346.832 310.673C350.549 308.354 352.388 319.428 352.388 319.428C352.388 319.428 355.45 311.749 352.75 303.776C350.05 295.803 348.27 282.842 351.772 281.394C355.274 279.946 352.653 297.613 355.803 303.571C357.326 299.332 358.286 294.912 358.659 290.423C359.011 284.006 358.229 273.793 360.997 271.093C363.766 268.393 365.595 270.222 363.002 284.417C361.45 292.903 360.638 301.508 360.576 310.135C360.576 310.135 366.446 291.47 370.525 290.863C374.605 290.257 374.673 296.273 371.239 301.546C367.806 306.819 361.163 316.22 360.117 321.111C360.117 321.111 366.632 307.034 372.697 311.221C378.762 315.408 367.62 324.026 362.641 327.156C357.661 330.287 354.413 349.451 354.413 349.451L351.831 348.756Z" fill="white"/>
<path d="M374.888 340.715H333.586L336.932 370.268H371.543L374.888 340.715Z" fill="#FFC727"/>
<path d="M20.2231 340.862C20.36 339.932 23.5394 317.99 17.1709 310.409C16.5308 309.62 15.7246 308.982 14.8099 308.541C13.8951 308.1 12.8942 307.866 11.8786 307.855C-0.985397 307.552 -2.74625 317.882 -2.79517 317.99L-1.27888 318.225C-1.22018 317.853 0.305892 309.108 11.8003 309.421C12.6027 309.431 13.3924 309.621 14.1118 309.977C14.8312 310.332 15.462 310.844 15.9579 311.475C21.8861 318.528 18.697 340.5 18.6677 340.715L20.2231 340.862Z" fill="#FFC727"/>
<path d="M20.9958 339.864L22.5317 339.815C22.5317 339.619 22.023 319.594 31.8837 315.456C41.5586 311.406 45.9021 319.731 46.0879 320.093L47.4575 319.399C47.4575 319.301 42.3021 309.43 31.2968 314.048C20.4578 318.616 20.9762 338.993 20.9958 339.864Z" fill="#FFC727"/>
<path d="M20.9569 341.439C20.9569 341.116 21.0449 309.46 27.2177 300.196C33.1459 291.303 42.7132 295.49 43.1143 295.676L43.7501 294.277C43.6327 294.228 32.5981 289.386 25.946 299.345C19.5091 308.99 19.421 340.118 19.421 341.409L20.9569 341.439Z" fill="#FFC727"/>
<path d="M10.0398 308.57C10.0398 308.57 15.655 310.634 13.9528 315.525C12.2506 320.416 -5.44593 328.457 -5.44593 328.457C-5.44593 328.457 -12.8806 321.61 -6.05245 310.555C0.775748 299.501 9.88327 305.067 10.0398 308.57Z" fill="#FFC727"/>
<path d="M27.5013 298.523C27.5013 298.523 23.51 298.102 23.8328 295.666C24.1557 293.231 39.3284 286.989 48.2891 297.095C48.2891 297.095 42.5566 306.946 34.261 307.073C25.9654 307.2 27.5013 298.523 27.5013 298.523Z" fill="#FFC727"/>
<path d="M31.5905 314.752C31.5905 314.752 28.8416 312.531 31.8057 311.446C34.7698 310.36 49.3457 310.673 49.5023 325.141C49.5023 325.141 32.5296 327.958 30.4263 322.461C28.3231 316.963 31.5905 314.752 31.5905 314.752Z" fill="#FFC727"/>
<path opacity="0.2" d="M10.0398 308.57C10.0398 308.57 15.655 310.634 13.9528 315.525C12.2506 320.416 -5.44593 328.457 -5.44593 328.457C-5.44593 328.457 -12.8806 321.61 -6.05245 310.555C0.775748 299.501 9.88327 305.067 10.0398 308.57Z" fill="black"/>
<path opacity="0.2" d="M27.5013 298.523C27.5013 298.523 23.51 298.102 23.8328 295.666C24.1557 293.231 39.3284 286.989 48.2891 297.095C48.2891 297.095 42.5566 306.946 34.261 307.073C25.9654 307.2 27.5013 298.523 27.5013 298.523Z" fill="black"/>
<path opacity="0.2" d="M31.5905 314.752C31.5905 314.752 28.8416 312.531 31.8057 311.446C34.7698 310.36 49.3457 310.673 49.5023 325.141C49.5023 325.141 32.5296 327.958 30.4263 322.461C28.3231 316.963 31.5905 314.752 31.5905 314.752Z" fill="black"/>
<path d="M7.0168 370.268H33.3513L36.198 341.439H4.17987L7.0168 370.268Z" fill="#FFC727"/>
<path opacity="0.5" d="M7.0168 370.268H33.3513L36.198 341.439H4.17987L7.0168 370.268Z" fill="white"/>
<path d="M2.78094 344.618H37.6067V338.259H2.78094V344.618Z" fill="#FFC727"/>
<path opacity="0.2" d="M2.78094 344.618H37.6067V338.259H2.78094V344.618Z" fill="white"/>
<path d="M288.851 361.288H298.438C298.595 361.288 298.747 361.342 298.869 361.439C298.992 361.537 299.078 361.673 299.113 361.826L300.668 368.86C300.7 369.009 300.702 369.164 300.674 369.314C300.645 369.464 300.588 369.608 300.504 369.736C300.421 369.864 300.313 369.974 300.186 370.061C300.06 370.147 299.918 370.207 299.768 370.239H299.514C296.413 370.19 294.153 370.004 290.26 370.004C287.863 370.004 280.624 370.249 277.308 370.249C273.991 370.249 273.571 366.981 274.921 366.678C281.006 365.348 285.584 363.518 287.531 361.787C287.89 361.456 288.363 361.277 288.851 361.288Z" fill="#263238"/>
<path d="M248.215 361.034H257.802C257.96 361.034 258.113 361.089 258.235 361.189C258.358 361.288 258.443 361.427 258.477 361.581L260.032 368.605C260.093 368.907 260.033 369.221 259.864 369.479C259.696 369.737 259.433 369.919 259.132 369.985C259.048 369.999 258.962 369.999 258.878 369.985C255.777 369.985 253.517 369.75 249.623 369.75C247.217 369.75 239.988 370.004 236.671 370.004C233.355 370.004 232.925 366.727 234.284 366.424C240.369 365.103 244.938 363.264 246.894 361.532C247.253 361.201 247.726 361.022 248.215 361.034Z" fill="#263238"/>
<path d="M293.938 183.618H252.059C248.077 205.364 235.615 293.661 244.556 362.217H258.731C258.731 362.217 257.42 258.092 269.941 224.45C271.379 242.46 286.014 362.149 286.014 362.149H300.443C300.443 362.149 298.291 317.149 296.129 274.595C294.769 247.791 293.997 189.096 293.938 183.618Z" fill="#FFC727"/>
<path opacity="0.2" d="M269.932 224.431C267.878 230.331 266.314 236.391 265.256 242.548C264.082 226.524 268.768 209.532 268.768 209.532L269.932 224.431Z" fill="black"/>
<path d="M251.707 184.107H293.86V189.126L251.169 188.607L251.707 184.107Z" fill="#263238"/>
<path d="M280.311 181.847H278.804V190.759H280.311V181.847Z" fill="#FFC727"/>
<path d="M258.985 181.847H257.479V190.759H258.985V181.847Z" fill="#FFC727"/>
<path d="M270.92 183.227H263.123V188.842H270.92V183.227Z" fill="white"/>
<path d="M293.997 184.909C295.112 160.923 302.165 126.977 302.165 126.977C282.6 122.262 256.314 123.446 256.314 123.446C251.188 141.759 251.286 171.312 251.736 184.909H293.997Z" fill="#263238"/>
<path opacity="0.2" d="M293.997 184.909C295.112 160.923 302.165 126.977 302.165 126.977C282.6 122.262 256.314 123.446 256.314 123.446C251.188 141.759 251.286 171.312 251.736 184.909H293.997Z" fill="white"/>
<path d="M269.54 122.966L268.141 123.602C268.141 123.602 268.366 129.892 274.686 130.303C281.005 130.714 286.934 124.434 286.934 124.434L284.811 123.289L269.54 122.966Z" fill="#263238"/>
<path d="M283.901 121.91C280.81 124.453 276.075 128.014 274.686 127.564C273.522 127.183 271.507 124.874 269.902 122.829C270.759 122.588 271.527 122.101 272.113 121.43C272.612 120.39 272.75 119.213 272.504 118.085C272.227 115.925 271.759 113.794 271.105 111.716L270.871 110.973L283.099 105.945C283.099 105.945 282.023 117.156 283.03 120.423C283.21 120.975 283.507 121.483 283.901 121.91Z" fill="#E4897B"/>
<path opacity="0.2" d="M281.182 112.802C281.182 112.802 278.804 123.309 272.514 118.085C272.224 115.926 271.753 113.796 271.106 111.716L271.849 111.443L281.182 112.802Z" fill="black"/>
<path d="M263.994 88.9624C263.994 88.9624 259.758 97.258 266.244 103.969C271.067 108.948 273.649 89.1287 273.649 89.1287L263.994 88.9624Z" fill="#263238"/>
<path d="M281.475 114.221C280.104 115.809 278.249 116.904 276.196 117.337C274.142 117.77 272.004 117.517 270.108 116.618C267.629 115.503 265.669 113.484 264.629 110.973C264.483 110.631 264.365 110.269 264.248 109.907C262.291 103.167 262.722 91.8482 270 88.4439C271.604 87.6836 273.376 87.3465 275.147 87.4649C276.918 87.5832 278.63 88.1529 280.119 89.1199C281.607 90.0868 282.824 91.4188 283.652 92.9888C284.48 94.5589 284.892 96.3148 284.85 98.0895C284.752 105.681 285.075 110.151 281.475 114.221Z" fill="#E4897B"/>
<path d="M273.395 100.799C273.473 101.415 273.131 101.934 272.72 101.953C272.309 101.973 271.966 101.484 271.937 100.868C271.908 100.251 272.211 99.7329 272.612 99.7133C273.013 99.6937 273.365 100.173 273.395 100.799Z" fill="#263238"/>
<path d="M266.42 101.161C266.488 101.768 266.146 102.296 265.745 102.315C265.344 102.335 264.982 101.846 264.952 101.23C264.923 100.613 265.226 100.095 265.627 100.075C266.028 100.056 266.381 100.574 266.42 101.161Z" fill="#263238"/>
<path d="M268.65 101.347C268.014 103.276 267.112 105.107 265.97 106.786C266.41 107.066 266.905 107.247 267.422 107.317C267.939 107.386 268.465 107.342 268.963 107.187L268.65 101.347Z" fill="#DE5753"/>
<path d="M263.671 98.3046C263.73 98.3363 263.795 98.3529 263.862 98.3529C263.928 98.3529 263.994 98.3363 264.052 98.3046C264.419 98.0362 264.844 97.8567 265.292 97.7803C265.74 97.7039 266.2 97.7327 266.635 97.8644C266.68 97.8889 266.729 97.9037 266.78 97.9079C266.831 97.9121 266.882 97.9054 266.93 97.8885C266.978 97.8716 267.022 97.8447 267.059 97.8096C267.095 97.7745 267.125 97.7321 267.144 97.685C267.163 97.6379 267.173 97.5872 267.171 97.5363C267.17 97.4854 267.157 97.4354 267.135 97.3895C267.113 97.3437 267.081 97.303 267.042 97.2702C267.003 97.2374 266.958 97.2132 266.909 97.1992C266.362 97.0189 265.781 96.9719 265.212 97.0621C264.644 97.1523 264.105 97.3771 263.642 97.7177C263.561 97.7697 263.505 97.8515 263.485 97.9449C263.465 98.0384 263.482 98.1361 263.534 98.2166C263.574 98.2535 263.621 98.2833 263.671 98.3046Z" fill="#263238"/>
<path d="M274.628 97.9329C274.7 97.932 274.77 97.9041 274.823 97.8547C274.853 97.8174 274.875 97.7747 274.888 97.729C274.901 97.6833 274.905 97.6354 274.899 97.5882C274.894 97.5409 274.879 97.4952 274.856 97.4537C274.833 97.4121 274.802 97.3755 274.765 97.346C274.313 96.9845 273.782 96.7364 273.215 96.6224C272.649 96.5083 272.063 96.5317 271.507 96.6906C271.462 96.7058 271.421 96.73 271.385 96.7616C271.35 96.7933 271.322 96.8317 271.301 96.8746C271.281 96.9176 271.27 96.9641 271.268 97.0115C271.267 97.0589 271.275 97.1061 271.292 97.1503C271.325 97.2394 271.392 97.3118 271.478 97.3521C271.564 97.3923 271.662 97.3972 271.751 97.3655C272.193 97.2547 272.655 97.2482 273.1 97.3467C273.545 97.4452 273.961 97.6459 274.314 97.9329C274.363 97.9571 274.417 97.9696 274.471 97.9696C274.525 97.9696 274.579 97.9571 274.628 97.9329Z" fill="#263238"/>
<path d="M278.756 88.9134L278.354 92.259C278.923 92.5262 279.369 92.9985 279.603 93.5811C279.837 94.1636 279.842 94.8132 279.616 95.3992C278.55 98.2166 280.164 102.58 282.326 104.311C282.326 104.311 282.395 103.098 283.422 103.333C284.449 103.568 284.195 109.975 282.199 113.008C282.199 113.008 285.222 110.259 286.914 103.577C288.479 97.4046 289.908 97.209 287.384 89.8819L278.756 88.9134Z" fill="#263238"/>
<path d="M288.44 104.135C287.694 105.887 286.289 107.275 284.527 107.999C282.17 108.977 280.732 106.884 281.162 104.516C281.563 102.423 283.265 99.3415 285.74 99.4492C288.215 99.5568 289.301 101.963 288.44 104.135Z" fill="#E4897B"/>
<path d="M269.541 109.114C269.972 109.977 270.342 110.87 270.646 111.785C270.822 111.785 270.988 111.785 271.155 111.697C273.424 111.306 274.344 110.376 274.686 109.466C274.835 109.016 274.879 108.537 274.813 108.068C274.783 107.798 274.713 107.535 274.608 107.285C273.316 108.153 271.85 108.73 270.313 108.977C269.844 109.075 269.541 109.114 269.541 109.114Z" fill="#263238"/>
<path d="M270.313 108.977L270.665 109.75C272.798 109.378 274.256 108.831 274.813 108.068C274.782 107.798 274.713 107.535 274.608 107.285C273.316 108.153 271.85 108.73 270.313 108.977Z" fill="white"/>
<path d="M271.154 111.697C273.424 111.306 274.344 110.376 274.686 109.466C273.821 109.64 272.995 109.972 272.25 110.445C271.764 110.739 271.382 111.176 271.154 111.697Z" fill="#DE5753"/>
<path d="M265.823 87.221C264.416 86.6354 263.099 85.8549 261.91 84.9026C260.99 83.9243 265.314 81.6352 268.357 80.9211C271.399 80.207 277.161 79.082 282.052 80.9211C286.943 82.7602 293.038 89.9895 292.627 91.1242C292.216 92.259 270.323 90.3612 265.823 87.221Z" fill="#FFC727"/>
<path d="M263.465 89.0994L265.793 84.4723C265.793 84.4723 275.977 83.6016 278.941 84.2766C281.905 84.9516 289.017 90.1461 289.017 90.1461L288.802 93.2081L263.465 89.0994Z" fill="#FFC727"/>
<path opacity="0.2" d="M263.465 89.0994L265.793 84.4723C265.793 84.4723 275.977 83.6016 278.941 84.2766C281.905 84.9516 289.017 90.1461 289.017 90.1461L288.802 93.2081L263.465 89.0994Z" fill="black"/>
<path d="M262.82 92.9047C262.82 92.9047 277.494 90.9482 288.744 96.5438C288.744 96.5438 289.908 93.609 289.203 92.2884C288.92 91.7699 282.679 87.8276 272.573 87.6026C262.468 87.3776 262.869 88.2874 262.556 88.9134C262.243 89.5395 261.812 92.4938 262.82 92.9047Z" fill="#FFC727"/>
<path d="M276.858 87.7493C276.858 87.7493 276.858 92.5134 276.652 93.071C276.447 93.6286 276.897 93.7362 277.259 92.9242C277.621 92.1123 278.237 87.2504 276.858 87.7493Z" fill="#FFC727"/>
<path d="M266.224 87.6612C266.224 87.6612 265.353 92.3177 265.305 92.6797C265.256 93.0416 264.796 93.071 264.59 92.6797C264.385 92.2884 264.639 86.6047 266.224 87.6612Z" fill="#FFC727"/>
<path d="M286.855 90.8113C287.384 91.0852 286.699 95.6145 286.298 95.458C285.897 95.3014 286.728 96.1329 287.051 95.771C287.52 94.3365 287.712 92.8262 287.618 91.3199C287.413 90.5569 286.855 90.8113 286.855 90.8113Z" fill="#FFC727"/>
<path opacity="0.2" d="M276.858 87.7493C276.858 87.7493 276.858 92.5134 276.652 93.071C276.447 93.6286 276.897 93.7362 277.259 92.9242C277.621 92.1123 278.237 87.2504 276.858 87.7493Z" fill="black"/>
<path opacity="0.2" d="M266.224 87.6612C266.224 87.6612 265.353 92.3177 265.305 92.6797C265.256 93.0416 264.796 93.071 264.59 92.6797C264.385 92.2884 264.639 86.6047 266.224 87.6612Z" fill="black"/>
<path opacity="0.2" d="M286.855 90.8113C287.384 91.0852 286.699 95.6145 286.298 95.458C285.897 95.3014 286.728 96.1329 287.051 95.771C287.52 94.3365 287.712 92.8262 287.618 91.3199C287.413 90.5569 286.855 90.8113 286.855 90.8113Z" fill="black"/>
<path d="M272.671 113.878C273.217 114.065 273.806 114.087 274.365 113.941C274.924 113.795 275.427 113.487 275.811 113.057C277.053 111.56 276.242 110.582 276.242 110.582C276.242 110.582 279.03 112.274 278.687 114.025C278.345 115.776 276.388 117.508 272.192 117.557C267.995 117.605 269.541 113.399 269.541 113.399C269.541 113.399 269.638 114.759 270.313 114.896C270.988 115.033 272.671 113.878 272.671 113.878Z" fill="#263238"/>
<path d="M269.541 122.966L271.155 119.562C271.155 119.562 273.395 122.497 274.001 123.328C274.468 124.248 274.776 125.241 274.911 126.263C274.911 126.263 275.782 123.896 277.161 123.328C278.541 122.761 284.273 119.562 284.273 119.562L285.633 123.328C285.633 123.328 279.127 128.22 274.686 127.574C273.459 127.427 272.307 126.907 271.386 126.082C270.466 125.258 269.821 124.17 269.541 122.966Z" fill="#FFC727"/>
<path opacity="0.6" d="M269.541 122.966L271.155 119.562C271.155 119.562 273.395 122.497 274.001 123.328C274.468 124.248 274.776 125.241 274.911 126.263C274.911 126.263 275.782 123.896 277.161 123.328C278.541 122.761 284.273 119.562 284.273 119.562L285.633 123.328C285.633 123.328 279.127 128.22 274.686 127.574C273.459 127.427 272.307 126.907 271.386 126.082C270.466 125.258 269.821 124.17 269.541 122.966Z" fill="white"/>
<path d="M277.562 153.155L271.126 151.795L269.873 143.353C269.873 143.353 265.589 146.053 265.589 147.022C265.589 147.99 266.997 155.826 266.997 155.826H269.873L276.829 157.557L277.562 153.155Z" fill="#E4897B"/>
<path d="M256.041 151.482L262.595 150.895L264.845 142.659C264.845 142.659 268.758 145.848 268.66 146.816C268.562 147.785 266.205 155.434 266.205 155.434L263.339 155.092L256.236 155.982L256.041 151.482Z" fill="#E4897B"/>
<path d="M302.165 126.977C306.47 129.198 308.495 159.367 302.165 162.194C295.836 165.021 271.928 157.655 271.928 157.655L272.828 151.306C272.828 151.306 293.557 155.063 295.327 153.948C298.595 151.844 297.509 141.788 297.509 141.788C297.705 138.932 298.16 136.1 298.869 133.326C299.681 131.073 300.79 128.938 302.165 126.977Z" fill="#263238"/>
<path d="M256.315 123.446C252.128 124.15 240.555 152.793 242.189 157.606C243.823 162.419 260.169 156.97 260.169 156.97V150.279C260.169 150.279 251.649 151.257 251.101 150.68C250.553 150.103 252.529 147.022 252.529 147.022C252.529 147.022 254.916 137.767 256.041 132.465C256.73 129.507 256.823 126.441 256.315 123.446Z" fill="#263238"/>
<path d="M134.434 350.175L146.173 347.984V356.309C146.173 356.309 152.17 366.248 154.752 366.932C155.459 367.115 156.067 367.565 156.448 368.188C156.829 368.81 156.954 369.556 156.797 370.268H143.835L140.695 366.551L140.02 370.298H137.535C137.535 370.298 134.913 362.736 137.535 357.424L134.434 350.175Z" fill="#263238"/>
<path d="M93.1323 349.148L104.871 350.048L103.834 356.309C103.834 356.309 109.831 366.248 112.414 366.932C113.12 367.115 113.728 367.565 114.109 368.188C114.491 368.81 114.616 369.556 114.458 370.268H101.477L98.3562 366.551L97.6812 370.298H95.1964C95.1964 370.298 92.5747 362.736 95.1964 357.424L93.1323 349.148Z" fill="#263238"/>
<path opacity="0.2" d="M134.434 350.175L146.173 347.984V356.309C146.173 356.309 152.17 366.248 154.752 366.932C155.459 367.115 156.067 367.565 156.448 368.188C156.829 368.81 156.954 369.556 156.797 370.268H143.835L140.695 366.551L140.02 370.298H137.535C137.535 370.298 134.913 362.736 137.535 357.424L134.434 350.175Z" fill="white"/>
<path opacity="0.2" d="M93.1323 349.148L104.871 350.048L103.834 356.309C103.834 356.309 109.831 366.248 112.414 366.932C113.12 367.115 113.728 367.565 114.109 368.188C114.491 368.81 114.616 369.556 114.458 370.268H101.477L98.3562 366.551L97.6812 370.298H95.1964C95.1964 370.298 92.5747 362.736 95.1964 357.424L93.1323 349.148Z" fill="white"/>
<path d="M116.463 146.327C120.376 147.53 127.684 169.228 126.246 174.549C124.808 179.871 118.909 171.135 116.463 164.601C114.018 158.066 116.463 146.327 116.463 146.327Z" fill="#FFC727"/>
<path opacity="0.4" d="M116.463 146.327C120.376 147.53 127.684 169.228 126.246 174.549C124.808 179.871 118.909 171.135 116.463 164.601C114.018 158.066 116.463 146.327 116.463 146.327Z" fill="black"/>
<path d="M78.9765 152.568C78.9765 152.568 73.8896 173.816 79.1233 181.055C84.3569 188.294 86.3036 157.322 86.3036 157.322L78.9765 152.568Z" fill="#FFC727"/>
<path opacity="0.4" d="M78.9765 152.568C78.9765 152.568 73.8896 173.816 79.1233 181.055C84.3569 188.294 86.3036 157.322 86.3036 157.322L78.9765 152.568Z" fill="black"/>
<path d="M79.1529 150.612C79.1529 150.612 86.2061 164.904 87.0474 194.251L117.187 191.649C117.187 191.649 120.21 161.128 116.463 146.327C116.463 146.327 90.8332 148.088 81.6181 150.103C80.7572 150.299 79.9551 150.475 79.1529 150.612Z" fill="#FFC727"/>
<path opacity="0.4" d="M117.872 182.405C117.559 187.912 117.187 191.649 117.187 191.649L87.0475 194.251C86.9823 191.91 86.8779 189.673 86.7344 187.541C86.3529 181.671 85.7562 176.565 85.0127 172.133C84.8269 170.979 84.6312 169.893 84.4258 168.836C84.3475 168.455 84.279 168.083 84.2008 167.711C84.0834 167.095 83.9562 166.489 83.8291 165.902L83.7508 165.54C83.5454 164.561 83.3204 163.583 83.1051 162.683C82.9388 162.038 82.7823 161.431 82.6258 160.844C82.5378 160.551 82.4693 160.277 82.4008 160.003C82.3961 159.947 82.3961 159.892 82.4008 159.837C82.2345 159.25 82.078 158.692 81.9117 158.164C81.7454 157.635 81.5302 156.892 81.3443 156.305C81.1584 155.718 80.953 155.121 80.7769 154.603L80.591 154.094C80.4736 153.762 80.366 153.449 80.2584 153.175C79.603 151.463 79.1921 150.621 79.1921 150.621C79.965 150.475 80.7965 150.299 81.6671 150.103C90.8725 148.088 116.493 146.327 116.493 146.327C116.757 147.305 116.982 148.45 117.178 149.604C117.236 149.927 117.285 150.259 117.344 150.582C117.657 152.656 117.892 154.896 118.048 157.244C118.107 158.017 118.146 158.79 118.185 159.572L118.244 160.815C118.244 161.226 118.244 161.637 118.244 162.067C118.244 162.889 118.263 163.72 118.303 164.561C118.303 165.305 118.303 166.048 118.303 166.782C118.352 172.446 118.107 177.993 117.872 182.405Z" fill="black"/>
<path opacity="0.2" d="M117.872 182.405C113.392 179.304 109.919 173.376 109.919 173.376C108.24 174.145 106.415 174.545 104.568 174.549C102.717 174.545 100.872 174.352 99.0604 173.972C99.0604 173.972 92.2909 184.117 86.7344 187.541C86.3529 181.671 85.7562 176.565 85.0127 172.133C84.8269 170.979 84.6312 169.893 84.4258 168.836C84.3475 168.455 84.279 168.083 84.2008 167.711C84.0834 167.095 83.9562 166.489 83.8291 165.902L83.7508 165.54C83.5356 164.561 83.3106 163.583 83.1051 162.683C82.9388 162.038 82.7823 161.431 82.6258 160.844C82.5378 160.551 82.4693 160.277 82.4008 160.003C82.3961 159.947 82.3961 159.892 82.4008 159.837C82.2345 159.25 82.078 158.692 81.9117 158.164C81.7454 157.635 81.5302 156.882 81.3443 156.305C81.1584 155.728 80.953 155.121 80.7769 154.603L80.591 154.094C80.4736 153.762 80.366 153.449 80.2584 153.175C79.603 151.463 79.1921 150.621 79.1921 150.621C79.965 150.475 80.7965 150.299 81.6671 150.103C90.8725 148.088 116.493 146.327 116.493 146.327C116.757 147.305 116.982 148.45 117.178 149.604C117.236 149.927 117.285 150.259 117.344 150.582C117.657 152.656 117.892 154.896 118.048 157.244C118.107 158.017 118.146 158.79 118.185 159.572L118.244 160.815C118.244 161.226 118.244 161.636 118.244 162.067C118.244 162.889 118.263 163.72 118.303 164.561C118.303 165.305 118.303 166.048 118.303 166.782C118.352 172.446 118.107 177.993 117.872 182.405Z" fill="black"/>
<path d="M92.6038 148.978C92.0948 149.259 91.7131 149.725 91.5375 150.279H105.566C105.448 149.183 104.763 148.195 103.022 147.599C102.702 147.498 102.375 147.42 102.044 147.364C101.261 146.943 100.205 145.789 99.6961 142.619C99.5032 141.37 99.4018 140.108 99.3928 138.843L90.2951 138.736C90.2951 138.736 94.3451 144.136 92.6038 148.978Z" fill="#EEC1BB"/>
<path opacity="0.2" d="M99.4027 138.843C99.4117 140.108 99.513 141.37 99.7059 142.619C93.7484 143.598 90.3049 138.706 90.3049 138.706L99.4027 138.843Z" fill="black"/>
<path d="M94.8243 110.836C99.9308 112.47 105.761 112.675 106.925 122.262C106.925 122.262 113.186 141.201 113.176 145.397C113.176 145.397 116.258 144.996 117.569 145.808C119.946 147.276 122.998 155.591 122.998 155.591C122.998 155.591 117.49 169.59 107.004 172.759C96.5167 175.929 76.0419 160.14 76.0419 160.14C76.0419 160.14 77.1864 147.872 79.1821 146.307C80.6238 145.358 82.3682 144.981 84.0733 145.251C83.4831 144.536 83.1218 143.66 83.0364 142.737C83.0364 141.524 84.9929 135.38 83.5842 128.894C82.1755 122.409 94.8243 110.836 94.8243 110.836Z" fill="#FFC727"/>
<path d="M95.4897 113.927C103.228 113.164 106.133 117.058 107.493 124.981C109.195 134.891 107.688 142.189 97.7885 141.025C84.3572 139.43 82.6257 115.209 95.4897 113.927Z" fill="#EEC1BB"/>
<path d="M102.455 125.05C103.188 126.146 104.052 127.147 105.028 128.034C104.833 128.377 104.548 128.661 104.202 128.852C103.857 129.044 103.466 129.136 103.071 129.119L102.455 125.05Z" fill="#D4827D"/>
<path d="M97.6415 124.923C97.7198 125.559 97.4459 126.116 97.0154 126.165C96.585 126.214 96.1839 125.745 96.1154 125.109C96.047 124.473 96.3111 123.925 96.7317 123.866C97.1524 123.808 97.5633 124.248 97.6415 124.923Z" fill="#263238"/>
<path d="M96.5855 123.886L97.8964 123.172C97.8964 123.172 97.329 124.414 96.5855 123.886Z" fill="#263238"/>
<path d="M105.517 123.788C105.595 124.414 105.311 124.972 104.891 125.03C104.47 125.089 104.059 124.61 103.981 123.974C103.903 123.338 104.186 122.78 104.607 122.731C105.028 122.683 105.438 123.152 105.517 123.788Z" fill="#263238"/>
<path d="M104.411 122.78L105.722 122.066C105.722 122.066 105.204 123.318 104.411 122.78Z" fill="#263238"/>
<path d="M93.7877 121.382C93.7299 121.396 93.6694 121.396 93.6116 121.382C93.5736 121.358 93.5409 121.326 93.5153 121.29C93.4897 121.253 93.4718 121.211 93.4627 121.168C93.4535 121.124 93.4534 121.078 93.4621 121.035C93.4709 120.991 93.4885 120.949 93.5138 120.912C93.9307 120.378 94.4679 119.95 95.0816 119.662C95.6952 119.375 96.368 119.237 97.0453 119.259C97.0889 119.26 97.1319 119.27 97.1718 119.288C97.2117 119.306 97.2476 119.331 97.2776 119.363C97.3076 119.395 97.331 119.432 97.3465 119.473C97.3621 119.514 97.3694 119.557 97.3681 119.601C97.3681 119.689 97.333 119.774 97.2706 119.836C97.2083 119.899 97.1237 119.934 97.0355 119.934C96.4761 119.923 95.9216 120.038 95.4133 120.272C94.9051 120.506 94.4564 120.852 94.1007 121.284C94.0614 121.326 94.012 121.357 93.9571 121.374C93.9022 121.391 93.8439 121.394 93.7877 121.382Z" fill="#263238"/>
<path d="M105.781 119.327C105.729 119.336 105.676 119.336 105.625 119.327C105.205 119.061 104.731 118.894 104.238 118.838C103.745 118.782 103.246 118.839 102.778 119.004C102.697 119.039 102.606 119.043 102.522 119.014C102.439 118.985 102.37 118.925 102.328 118.848C102.308 118.808 102.296 118.765 102.293 118.72C102.291 118.676 102.297 118.632 102.311 118.59C102.326 118.548 102.349 118.509 102.378 118.476C102.408 118.443 102.444 118.417 102.484 118.398C103.047 118.184 103.651 118.103 104.25 118.16C104.849 118.218 105.426 118.413 105.938 118.73C106.016 118.774 106.074 118.846 106.1 118.932C106.126 119.018 106.117 119.111 106.075 119.19C106.041 119.235 105.996 119.272 105.945 119.295C105.894 119.319 105.837 119.33 105.781 119.327Z" fill="#263238"/>
<path d="M89.7377 129.335C89.5731 128.456 89.0717 127.677 88.3407 127.164C87.6096 126.65 86.7067 126.443 85.8247 126.586C83.4476 127.085 82.7922 132.132 88.8769 132.719C89.7377 132.807 90.1095 131.917 89.7377 129.335Z" fill="#EEC1BB"/>
<path d="M103.433 132.025C102.741 133.013 102.12 134.05 101.574 135.126C101.369 135.071 101.167 135.006 100.968 134.93C98.2189 134.04 97.2505 132.71 96.9961 131.516C96.8866 130.93 96.9202 130.326 97.094 129.755C97.1838 129.43 97.3153 129.118 97.4852 128.826C98.6494 130.176 101.144 131.213 102.504 131.712C103.1 131.917 103.433 132.025 103.433 132.025Z" fill="#263238"/>
<path d="M102.533 131.712L101.956 132.612C99.3735 131.751 97.6714 130.802 97.1235 129.755C97.2133 129.43 97.3449 129.118 97.5148 128.826C98.6789 130.176 101.173 131.213 102.533 131.712Z" fill="white"/>
<path d="M100.997 134.93C98.2484 134.04 97.2799 132.71 97.0256 131.516C98.0613 131.88 99.0249 132.423 99.8723 133.12C100.426 133.592 100.819 134.225 100.997 134.93Z" fill="#DE5753"/>
<path d="M89.3952 124.844C89.3952 124.844 92.8876 113.624 99.6669 114.084C106.446 114.544 106.926 122.311 106.926 122.311C106.926 122.311 108.96 109.437 92.4572 109.594C75.9541 109.75 85.0714 134.05 85.0714 134.05C85.0714 134.05 92.8093 143.226 102.543 140.898C102.543 140.819 92.5452 141.827 89.3952 124.844Z" fill="#FFC727"/>
<path d="M94.1984 164.327L99.8429 161.392C99.8429 161.392 101.203 154.094 101.682 153.136C102.161 152.177 103.639 154.877 104.343 155.571C105.047 156.266 103.981 162.85 103.551 163.574C103.12 164.297 101.183 163.574 101.183 163.574L95.8908 167.34L94.1984 164.327Z" fill="#EEC1BB"/>
<path d="M113.959 164.327L108.314 161.392C108.314 161.392 106.964 154.094 106.485 153.136C106.006 152.177 104.529 154.877 103.824 155.571C103.12 156.266 104.176 162.85 104.617 163.574C105.057 164.297 106.974 163.574 106.974 163.574L112.267 167.34L113.959 164.327Z" fill="#EEC1BB"/>
<path d="M76.7856 174.217C75.9052 198.585 102.22 170.304 102.22 170.304L96.83 161.431C96.83 161.431 77.0204 167.966 76.7856 174.217Z" fill="#FFC727"/>
<path opacity="0.4" d="M76.7856 174.217C75.9052 198.585 102.22 170.304 102.22 170.304L96.83 161.431C96.83 161.431 77.0204 167.966 76.7856 174.217Z" fill="black"/>
<path d="M111.817 162.145L108.784 171.214C108.784 171.214 119.154 180.125 123.047 180.527C126.94 180.928 131.147 168.817 111.817 162.145Z" fill="#FFC727"/>
<path opacity="0.4" d="M111.817 162.145L108.784 171.214C108.784 171.214 119.154 180.125 123.047 180.527C126.94 180.928 131.147 168.817 111.817 162.145Z" fill="black"/>
<path d="M87.077 190.896C87.077 190.896 73.5086 232.961 83.7803 353.511L156.817 349.148C156.817 349.148 142.563 250.657 117.432 188.842L87.077 190.896Z" fill="#263238"/>
<path d="M178.798 220.958H154.978L153.05 223.286L193.922 251.283H197.052H199.243H223.064L178.798 220.958Z" fill="#263238"/>
<path d="M229.08 220.958H205.249L160.993 251.283H184.814H190.136L230.997 223.286L229.08 220.958Z" fill="#263238"/>
<path opacity="0.2" d="M207.177 223.286L205.25 220.958L180.119 238.175L154.978 220.958L153.05 223.286L177.458 240.004L160.994 251.283H166.315L180.119 241.824L193.922 251.283H199.243L182.779 240.004L207.177 223.286Z" fill="white"/>
<path d="M160.602 221.652H182.349C182.349 221.652 189.441 222.269 192.865 226.543L182.349 235.123L160.602 221.652Z" fill="#FFC727"/>
<path opacity="0.5" d="M160.602 221.652H182.349C182.349 221.652 189.441 222.269 192.865 226.543L182.349 235.123L160.602 221.652Z" fill="white"/>
<path d="M160.602 221.652L182.535 236.522L204.056 221.691C204.056 221.691 198.06 220.958 193.452 223.364C189.111 225.547 185.453 228.88 182.877 233C180.516 229.292 177.205 226.283 173.288 224.288C169.371 222.292 164.99 221.382 160.602 221.652Z" fill="#FFC727"/>
<path opacity="0.7" d="M160.602 221.652L182.535 236.522L204.056 221.691C204.056 221.691 198.06 220.958 193.452 223.364C189.111 225.547 185.453 228.88 182.877 233C180.516 229.292 177.205 226.283 173.288 224.288C169.371 222.292 164.99 221.382 160.602 221.652Z" fill="white"/>
<path d="M279.694 251.577V370.024H274.138V262.201H211.099V370.024H205.543V262.201H184.051V370.024H178.484V262.201H115.456V370.024H109.89V251.577H279.694Z" fill="#FFC727"/>
<path opacity="0.4" d="M279.694 251.577V370.024H274.138V262.201H211.099V370.024H205.543V262.201H184.051V370.024H178.484V262.201H115.456V370.024H109.89V251.577H279.694Z" fill="white"/>
<path opacity="0.3" d="M205.465 251.577V262.201H184.051H178.484H115.456V370.024H109.89V251.577H205.465Z" fill="white"/>
</svg>
